<svg width="249" height="80" viewBox="0 0 249 80" fill="none" xmlns="http://www.w3.org/2000/svg">
<path d="M2 40C2 19.0132 19.0132 2 40 2H209C229.987 2 247 19.0132 247 40C247 60.9868 229.987 78 209 78H40C19.0132 78 2 60.9868 2 40Z" fill="#F7F724" stroke="#3D3D3D" stroke-width="4"/>
<path d="M43.204 51.504C41.332 51.504 39.736 51.168 38.416 50.496C37.12 49.824 36.124 48.66 35.428 47.004C34.756 45.324 34.42 42.996 34.42 40.02V25.836H38.632V39.012C38.632 40.956 38.692 42.516 38.812 43.692C38.956 44.844 39.196 45.72 39.532 46.32C39.868 46.896 40.336 47.28 40.936 47.472C41.536 47.664 42.292 47.76 43.204 47.76C44.14 47.736 44.908 47.628 45.508 47.436C46.132 47.244 46.6 46.86 46.912 46.284C47.248 45.708 47.488 44.844 47.632 43.692C47.776 42.54 47.848 40.98 47.848 39.012V25.836H52.024V39.696C52.024 42.792 51.676 45.192 50.98 46.896C50.308 48.6 49.312 49.8 47.992 50.496C46.696 51.168 45.1 51.504 43.204 51.504ZM58.8536 51V25.836H64.3616L73.4696 45.924H73.6136L73.1096 25.836H77.1056V51H71.5976L62.5256 30.912H62.3456L62.8496 51H58.8536ZM83.92 51.036L84.064 39.444L83.92 25.836H88.168L88.024 36.996L88.168 51L83.92 51.036ZM94.9942 51L95.1742 39.192L95.0302 25.872C95.2462 25.848 95.6782 25.812 96.3262 25.764C96.9742 25.716 97.7182 25.668 98.5582 25.62C99.4222 25.548 100.31 25.488 101.222 25.44C102.134 25.392 102.962 25.368 103.706 25.368C105.482 25.368 107.018 25.632 108.314 26.16C109.61 26.688 110.606 27.552 111.302 28.752C112.022 29.928 112.382 31.488 112.382 33.432C112.382 35.496 111.938 37.14 111.05 38.364C110.162 39.588 108.866 40.44 107.162 40.92V41.1L112.742 51H107.99L103.202 41.496L99.2422 41.352V51H94.9942ZM103.958 38.076C105.59 38.076 106.67 37.704 107.198 36.96C107.726 36.216 107.99 35.04 107.99 33.432C107.99 32.088 107.882 31.092 107.666 30.444C107.45 29.796 107.162 29.364 106.802 29.148C106.298 28.836 105.374 28.68 104.03 28.68C103.046 28.68 102.134 28.716 101.294 28.788C100.478 28.86 99.7942 28.932 99.2422 29.004L99.2062 37.752C99.9742 37.848 100.766 37.932 101.582 38.004C102.422 38.052 103.214 38.076 103.958 38.076ZM118.614 51L119.478 25.836H125.166L130.17 41.316H130.386L135.462 25.836H141.078L141.978 51H137.802L137.73 30.372H137.478L132.618 45.384H127.938L123.114 30.372H122.862L122.79 51H118.614ZM148.608 51V25.836H162.216V29.472L152.82 29.4L152.64 36.456H161.316V39.984H152.64L152.82 47.436L162.216 47.364V51H148.608Z" fill="#3D3D3D"/>
<path d="M210.93 22.1958C210.628 21.9355 210.262 21.7626 209.869 21.6959C209.476 21.6292 209.073 21.6712 208.703 21.8173L179.866 33.1462C179.426 33.319 179.054 33.6296 178.805 34.0314C178.557 34.4333 178.445 34.9049 178.486 35.3756C178.528 35.8463 178.721 36.2908 179.037 36.6426C179.352 36.9945 179.773 37.2347 180.237 37.3273L187.812 38.8423V48.2475C187.812 48.6803 187.94 49.1036 188.18 49.4636C188.421 49.8236 188.762 50.1042 189.162 50.2699C189.562 50.4355 190.002 50.4787 190.427 50.3941C190.851 50.3094 191.241 50.1006 191.547 49.7942L195.808 45.5333L202.18 51.1414C202.577 51.4933 203.088 51.6879 203.618 51.6886C203.849 51.6883 204.078 51.652 204.297 51.5809C204.658 51.4662 204.983 51.2588 205.24 50.9792C205.496 50.6996 205.675 50.3577 205.758 49.9876L211.635 24.3419C211.724 23.9539 211.706 23.5488 211.582 23.1705C211.457 22.7921 211.232 22.455 210.93 22.1956L210.93 22.1958ZM180.354 35.2098C180.344 35.1421 180.358 35.0729 180.394 35.0146C180.43 34.9563 180.486 34.9127 180.551 34.8915L204.681 25.412L188.533 37.0744L180.604 35.4886C180.536 35.4792 180.474 35.4461 180.428 35.395C180.382 35.344 180.356 35.2784 180.354 35.2098ZM190.221 48.4686C190.177 48.5123 190.122 48.542 190.061 48.5541C190 48.5661 189.938 48.5599 189.88 48.5363C189.823 48.5126 189.775 48.4726 189.74 48.4212C189.706 48.3698 189.688 48.3094 189.687 48.2476V40.1476L194.397 44.2923L190.221 48.4686ZM203.93 49.5689C203.918 49.6217 203.892 49.6704 203.856 49.7104C203.819 49.7503 203.773 49.78 203.721 49.7967C203.67 49.8133 203.615 49.8163 203.562 49.8053C203.509 49.7943 203.46 49.7697 203.419 49.7339L190.251 38.1462L209.78 24.0422L203.93 49.5689Z" fill="#3D3D3D"/>
</svg>
