<svg width="265" height="322" viewBox="0 0 265 322" fill="none" xmlns="http://www.w3.org/2000/svg">
<path d="M263.673 273.659C263.194 273.089 262.605 272.618 261.94 272.273C261.275 271.928 260.548 271.715 259.8 271.647C259.051 271.58 258.297 271.658 257.579 271.877C256.862 272.097 256.195 272.454 255.618 272.928L230.709 293.35V226.625C230.709 225.133 230.107 223.702 229.036 222.647C227.964 221.592 226.511 220.999 224.996 220.999C223.481 220.999 222.028 221.592 220.956 222.647C219.885 223.702 219.283 225.133 219.283 226.625V293.35L194.374 272.928C193.796 272.455 193.13 272.099 192.412 271.879C191.695 271.66 190.94 271.582 190.192 271.65C189.444 271.718 188.717 271.931 188.053 272.275C187.388 272.62 186.799 273.09 186.319 273.659C185.838 274.228 185.477 274.884 185.254 275.591C185.032 276.297 184.953 277.04 185.022 277.777C185.09 278.513 185.306 279.229 185.656 279.884C186.006 280.539 186.484 281.119 187.061 281.592L221.34 309.722L222.196 310.228L222.939 310.622C224.263 311.125 225.729 311.125 227.053 310.622L227.795 310.228L228.652 309.722L262.931 281.592C263.509 281.119 263.987 280.539 264.338 279.885C264.688 279.23 264.904 278.514 264.973 277.777C265.042 277.04 264.963 276.297 264.74 275.591C264.517 274.884 264.154 274.227 263.673 273.659Z" fill="white"/>
<path d="M263.676 284.66C263.196 284.09 262.607 283.619 261.943 283.274C261.278 282.929 260.551 282.716 259.802 282.648C259.054 282.58 258.3 282.658 257.582 282.878C256.864 283.098 256.198 283.455 255.621 283.928L230.712 304.351V237.626C230.712 236.134 230.11 234.703 229.038 233.648C227.967 232.593 226.514 232 224.999 232C223.483 232 222.03 232.593 220.959 233.648C219.887 234.703 219.285 236.134 219.285 237.626V304.351L194.377 283.928C193.799 283.455 193.132 283.099 192.415 282.88C191.697 282.661 190.943 282.583 190.195 282.651C189.447 282.719 188.72 282.931 188.055 283.276C187.391 283.621 186.801 284.091 186.321 284.66C185.841 285.229 185.479 285.885 185.257 286.592C185.034 287.298 184.955 288.041 185.024 288.778C185.093 289.514 185.309 290.23 185.659 290.885C186.009 291.539 186.486 292.12 187.064 292.592L221.342 320.723L222.199 321.229L222.942 321.623C224.265 322.126 225.732 322.126 227.055 321.623L227.798 321.229L228.655 320.723L262.933 292.592C263.512 292.12 263.99 291.54 264.34 290.886C264.691 290.231 264.907 289.515 264.976 288.778C265.045 288.041 264.966 287.298 264.742 286.591C264.519 285.885 264.157 285.228 263.676 284.66V284.66Z" fill="#F7F724"/>
</svg>
